# xmcd
#
# Track frame offsets:
#	150
#	21312
#	40930
#	61336
#	77169
#	90174
#	106864
#	125950
#
# Disc length: 1946 seconds
#
# Revision: 1
# Processed by: cddbd v1.5.2PL0 Copyright (c) Steve Scherf et al.
# Submitted via: audiograbber 1.83.01
#
DISCID=60079808
DTITLE=Various Artist - Classic Country
DYEAR=1900
DGENRE=Country
TTITLE0=Leann Rimes - How Do I Live
TTITLE1=Faith Hill - Breathe
TTITLE2=Kenny Rogers - Coward of the County
TTITLE3=John Denver - Take Me Home Country Roads
TTITLE4=Dolly Parton - Jolene
TTITLE5=Billy Ray Cyrus - Achy Breaky Heart
TTITLE6=Garth Brooks - Friends in Low Places
TTITLE7=Dolly Parton, Kenny Rogers - Islands In The Stream
EXTD=
EXTT0=
EXTT1=
EXTT2=
EXTT3=
EXTT4=
EXTT5=
EXTT6=
EXTT7=
PLAYORDER=
